/* XPM */
static char * micq_xpm[] = {
"48 48 6 1",
" 	c None",
".	c #00FF00",
"+	c #FFFF52",
"@	c #FF0000",
"#	c #0000FF",
"$	c #CDCACD",
"                    ........                    ",
"                    ........                    ",
"                   ..      ..                   ",
"                   ..      ..                   ",
"                  ..        ..                  ",
"                  ..        ..                  ",
"                 ..          ..                 ",
"                 ..          ..                 ",
"                ..            ..                ",
"                ..            ..                ",
"      ...........              ...........      ",
"     .............            .............     ",
"     ..         ..            ..         ..     ",
"    ..           ..          ..           ..    ",
"    ..           ..          ..           ..    ",
"   ..             ..        ..             ..   ",
"   ..             ..        ..             ..   ",
"  ..               ..      ..               ..  ",
"  ..               ..      ..               ..  ",
"   ..               ..    ..               ..   ",
"   ..               ..    ..               ..   ",
"    ..               .++++.               ..    ",
"    ..               ++  ++               ..    ",
"     @@@@@@@@@@@@@@@@+    +................     ",
"     @@@@@@@@@@@@@@@@+    +................     ",
"    @@               ++  ++               ..    ",
"    @@               @++++#               ..    ",
"   @@               @@    ##               ..   ",
"   @@               @@    ##               ..   ",
"  @@               @@      ##               ..  ",
"  @@               @@      ##               ..  ",
"   @@             @@        ##             ..   ",
"   @@             @@        ##             ..   ",
"    @@           @@          ##           ..    ",
"    @@           @@          ##           ..    ",
"     @@         @@            ##         ..     ",
"     @@@@@@@@@@@@@            ##...........     ",
"      @@@@@@@@@@@              #...####...$#### ",
"                ##            ##  ##  ##  ##  ##",
"                ## ### ##     ##  #    #  #    #",
"                 # #  #  #   ##   #       #    #",
"                 # #  #  #   ##   #       #    #",
"                   #  #  #  ##    #       #    #",
"                   #  #  #  ##    #       #    #",
"                   #  #  # ##     #    #  #  # #",
"                   #     # ##     ##  ##  ## ###",
"                    ########       ####    ####$",
"                    ########                  ##"};
