/* XPM */
static char * micq_xpm[] = {
"48 48 593 2",
"  	c None",
". 	c #010303",
"+ 	c #010202",
"@ 	c #000101",
"# 	c #0B0706",
"$ 	c #FD715E",
"% 	c #FDCBC4",
"& 	c #FD634E",
"* 	c #E22107",
"= 	c #0E0403",
"- 	c #0F0706",
"; 	c #FD6D5A",
"> 	c #FDE0DC",
", 	c #FD4F38",
"' 	c #FD2306",
") 	c #E91F04",
"! 	c #130300",
"~ 	c #11100F",
"{ 	c #FDCCC6",
"] 	c #FDF3F2",
"^ 	c #FDD0CA",
"/ 	c #FD3A20",
"( 	c #FD2204",
"_ 	c #150502",
": 	c #042604",
"< 	c #030A03",
"[ 	c #030103",
"} 	c #041004",
"| 	c #150D0B",
"1 	c #FD8B7C",
"2 	c #FDF5F4",
"3 	c #FDAFA4",
"4 	c #010001",
"5 	c #040204",
"6 	c #67B867",
"7 	c #C3F7C3",
"8 	c #ACFDAC",
"9 	c #3CF03C",
"0 	c #094A09",
"a 	c #161515",
"b 	c #FDD4CE",
"c 	c #FDFAFA",
"d 	c #FDF0EE",
"e 	c #FD8170",
"f 	c #021A02",
"g 	c #76C376",
"h 	c #DEFCDE",
"i 	c #D6FED6",
"j 	c #7AFE7A",
"k 	c #1EFE1E",
"l 	c #04FE04",
"m 	c #035503",
"n 	c #020102",
"o 	c #042004",
"p 	c #194C19",
"q 	c #4EFC4E",
"r 	c #48E448",
"s 	c #1C861C",
"t 	c #0F470F",
"u 	c #FD8676",
"v 	c #FDF9F8",
"w 	c #FDEAE8",
"x 	c #7FCF7F",
"y 	c #D5FED5",
"z 	c #CBFECB",
"A 	c #6CFE6C",
"B 	c #1FFE1F",
"C 	c #07FE07",
"D 	c #04E104",
"E 	c #034B03",
"F 	c #176617",
"G 	c #64EE64",
"H 	c #CAFECA",
"I 	c #ECFEEC",
"J 	c #E2FEE2",
"K 	c #A3FCA3",
"L 	c #2AC32A",
"M 	c #151C15",
"N 	c #FDB4AA",
"O 	c #FDD5D0",
"P 	c #FD543E",
"Q 	c #031B03",
"R 	c #020002",
"S 	c #81D281",
"T 	c #DDFEDD",
"U 	c #DBFEDB",
"V 	c #99FD99",
"W 	c #5FFD5F",
"X 	c #2EFD2E",
"Y 	c #0CFE0C",
"Z 	c #045604",
"` 	c #375637",
" .	c #B8FEB8",
"..	c #F6FEF6",
"+.	c #FAFEFA",
"@.	c #E8FEE8",
"#.	c #A5FEA5",
"$.	c #30FE30",
"%.	c #04EA04",
"&.	c #047D04",
"*.	c #151B15",
"=.	c #FDC2BA",
"-.	c #FDFCFC",
";.	c #FDC5BE",
">.	c #FD5640",
",.	c #E11C02",
"'.	c #021702",
").	c #022902",
"!.	c #5CD75C",
"~.	c #D0FCD0",
"{.	c #DEFEDE",
"].	c #96FD96",
"^.	c #37FE37",
"/.	c #0DFE0D",
"(.	c #05FE05",
"_.	c #03FD03",
":.	c #024F02",
"<.	c #475647",
"[.	c #FCFEFC",
"}.	c #EFFEEF",
"|.	c #ACFEAC",
"1.	c #3CFE3C",
"2.	c #04D404",
"3.	c #121B12",
"4.	c #FDA69A",
"5.	c #FDEEEC",
"6.	c #FD4C34",
"7.	c #140301",
"8.	c #A1D9A1",
"9.	c #DAFADA",
"0.	c #9DFC9D",
"a.	c #08FE08",
"b.	c #02FA02",
"c.	c #02EE02",
"d.	c #024402",
"e.	c #415641",
"f.	c #D0FED0",
"g.	c #78FE78",
"h.	c #0AFE0A",
"i.	c #04F104",
"j.	c #049804",
"k.	c #020902",
"l.	c #024002",
"m.	c #171717",
"n.	c #FDE9E6",
"o.	c #FD8474",
"p.	c #F82003",
"q.	c #011701",
"r.	c #040504",
"s.	c #AFC1AF",
"t.	c #C2F9C2",
"u.	c #47FE47",
"v.	c #02F202",
"w.	c #023C02",
"x.	c #000000",
"y.	c #235523",
"z.	c #87FE87",
"A.	c #D8FED8",
"B.	c #7CFE7C",
"C.	c #04FB04",
"D.	c #04CB04",
"E.	c #161111",
"F.	c #FDB2A8",
"G.	c #FDB6AC",
"H.	c #FD3116",
"I.	c #100403",
"J.	c #ACDEAC",
"K.	c #D9FED9",
"L.	c #73FE73",
"M.	c #15FE15",
"N.	c #02F002",
"O.	c #00C100",
"P.	c #002D00",
"Q.	c #154C15",
"R.	c #4AF64A",
"S.	c #63FE63",
"T.	c #3AFE3A",
"U.	c #04D904",
"V.	c #130908",
"W.	c #F2614D",
"X.	c #FDE7E4",
"Y.	c #FD4830",
"Z.	c #0F0302",
"`.	c #C1DEC1",
" +	c #BAFEBA",
".+	c #35FE35",
"++	c #01C801",
"@+	c #002B00",
"#+	c #023E02",
"$+	c #04CD04",
"%+	c #0D0605",
"&+	c #E55E4C",
"*+	c #FDA79C",
"=+	c #F12004",
"-+	c #53E053",
";+	c #B0FEB0",
">+	c #11FB11",
",+	c #022F02",
"'+	c #011C01",
")+	c #12031C",
"!+	c #150223",
"~+	c #0F0318",
"{+	c #033503",
"]+	c #03FA03",
"^+	c #04F804",
"/+	c #04BD04",
"(+	c #0B0404",
"_+	c #1D0300",
":+	c #27E027",
"<+	c #2CE12C",
"[+	c #109E10",
"}+	c #041804",
"|+	c #161916",
"1+	c #411E59",
"2+	c #B762F3",
"3+	c #CE8CFD",
"4+	c #C47CF7",
"5+	c #7C42A5",
"6+	c #050207",
"7+	c #0E0217",
"8+	c #032A03",
"9+	c #04E804",
"0+	c #074C07",
"a+	c #353D35",
"b+	c #55485F",
"c+	c #EAD0FD",
"d+	c #F9F4FD",
"e+	c #F4E8FD",
"f+	c #D59CFD",
"g+	c #7A20B9",
"h+	c #020301",
"i+	c #030203",
"j+	c #09020D",
"k+	c #070507",
"l+	c #414141",
"m+	c #080604",
"n+	c #C4C604",
"o+	c #ADAE03",
"p+	c #0D0B02",
"q+	c #000B0F",
"r+	c #024257",
"s+	c #0A7CA1",
"t+	c #051A20",
"u+	c #020101",
"v+	c #53425F",
"w+	c #E7C8FD",
"x+	c #FDFCFD",
"y+	c #D090FD",
"z+	c #9F1AFD",
"A+	c #9604FD",
"B+	c #9304F7",
"C+	c #6A04B1",
"D+	c #0B0310",
"E+	c #141208",
"F+	c #FCFE47",
"G+	c #FCFE83",
"H+	c #FCFE5C",
"I+	c #FCFE16",
"J+	c #FCFE0C",
"K+	c #DEDC04",
"L+	c #151303",
"M+	c #020302",
"N+	c #238DB0",
"O+	c #6ACAE9",
"P+	c #AAE7FB",
"Q+	c #9AE4FD",
"R+	c #48D0FD",
"S+	c #0EC2FD",
"T+	c #04B8F3",
"U+	c #033140",
"V+	c #45225D",
"W+	c #CA89F8",
"X+	c #F8F0FD",
"Y+	c #FAF6FD",
"Z+	c #E6C4FD",
"`+	c #B34AFD",
" @	c #9403FA",
".@	c #7604C5",
"+@	c #070409",
"@@	c #1E0231",
"#@	c #17150A",
"$@	c #FCFE64",
"%@	c #FCFEDB",
"&@	c #FCFEC1",
"*@	c #FCFE44",
"=@	c #FCFE05",
"-@	c #FCFE1B",
";@	c #FCFE0D",
">@	c #363805",
",@	c #070804",
"'@	c #6EB9D1",
")@	c #D6F0F9",
"!@	c #F8FCFD",
"~@	c #E8F8FD",
"{@	c #72DBFD",
"]@	c #16C4FD",
"^@	c #04BFFD",
"/@	c #043A4B",
"(@	c #010000",
"_@	c #4A335A",
":@	c #DCAEFD",
"<@	c #F7EEFD",
"[@	c #D69EFD",
"}@	c #A01CFD",
"|@	c #8004D7",
"1@	c #000100",
"2@	c #181610",
"3@	c #FCFEA2",
"4@	c #FCFEF1",
"5@	c #FCFEA1",
"6@	c #FCFE04",
"7@	c #191705",
"8@	c #5CB1CD",
"9@	c #C5EAF6",
"0@	c #EFF9FC",
"a@	c #E4F7FD",
"b@	c #74DBFD",
"c@	c #033C4E",
"d@	c #422855",
"e@	c #E2BCFD",
"f@	c #B754FD",
"g@	c #9B0EFD",
"h@	c #9303F8",
"i@	c #8A04E7",
"j@	c #37045B",
"k@	c #FCFEA9",
"l@	c #FCFEF0",
"m@	c #FCFE91",
"n@	c #191704",
"o@	c #51AECC",
"p@	c #D7F1FA",
"q@	c #F1F9FC",
"r@	c #E6F7FD",
"s@	c #88E0FD",
"t@	c #1CC5FD",
"u@	c #034054",
"v@	c #0A020F",
"w@	c #25063B",
"x@	c #210237",
"y@	c #3C0265",
"z@	c #18160E",
"A@	c #FCFE8B",
"B@	c #FCFE14",
"C@	c #181603",
"D@	c #3BA8CC",
"E@	c #D3F0FA",
"F@	c #F4FBFD",
"G@	c #AEE9FD",
"H@	c #03B7F2",
"I@	c #181609",
"J@	c #FCFE54",
"K@	c #FCFEC4",
"L@	c #FCFE24",
"M@	c #212200",
"N@	c #1AB4E7",
"O@	c #90E1FB",
"P@	c #D8F4FD",
"Q@	c #CAF0FD",
"R@	c #46D0FD",
"S@	c #10C2FD",
"T@	c #03485E",
"U@	c #020D02",
"V@	c #031003",
"W@	c #100F04",
"X@	c #F4F637",
"Y@	c #FCFE73",
"Z@	c #FCFE34",
"`@	c #C8CA04",
" #	c #030201",
".#	c #38ADD3",
"+#	c #44CFFD",
"@#	c #18C4FD",
"##	c #06C0FD",
"$#	c #1A301A",
"%#	c #4F874F",
"&#	c #ADFAAD",
"*#	c #D7FED7",
"=#	c #C9FEC9",
"-#	c #7BFE7B",
";#	c #1CFE1C",
">#	c #04FD04",
",#	c #03D603",
"'#	c #233004",
")#	c #090704",
"!#	c #ECF20C",
"~#	c #F4F604",
"{#	c #BEC004",
"]#	c #2A2C02",
"^#	c #021115",
"/#	c #030404",
"(#	c #0499C9",
"_#	c #03BAF6",
":#	c #027195",
"<#	c #011C24",
"[#	c #2C602C",
"}#	c #9DFE9D",
"|#	c #F1FEF1",
"1#	c #F2FEF2",
"2#	c #B9FEB9",
"3#	c #50FE50",
"4#	c #18FE18",
"5#	c #03E403",
"6#	c #03AA03",
"7#	c #026502",
"8#	c #0F0B00",
"9#	c #221903",
"0#	c #010203",
"a#	c #0C1E04",
"b#	c #132103",
"c#	c #023B4D",
"d#	c #010F14",
"e#	c #01080A",
"f#	c #0F520F",
"g#	c #51D051",
"h#	c #D3FED3",
"i#	c #F9FEF9",
"j#	c #8AFE8A",
"k#	c #04F904",
"l#	c #03DC03",
"m#	c #02A202",
"n#	c #057705",
"o#	c #102810",
"p#	c #130F06",
"q#	c #E9B53A",
"r#	c #A47C1B",
"s#	c #3F2E04",
"t#	c #031C03",
"u#	c #031403",
"v#	c #039003",
"w#	c #6BEE6B",
"x#	c #9FFD9F",
"y#	c #182218",
"z#	c #022102",
"A#	c #277527",
"B#	c #68D568",
"C#	c #F8FEF8",
"D#	c #CEFECE",
"E#	c #64FE64",
"F#	c #10FE10",
"G#	c #04F404",
"H#	c #02C402",
"I#	c #027102",
"J#	c #012F01",
"K#	c #19160E",
"L#	c #F9D784",
"M#	c #FDF3DA",
"N#	c #FDE7B4",
"O#	c #F8B71B",
"P#	c #010102",
"Q#	c #56EE56",
"R#	c #E0FEE0",
"S#	c #9AFE9A",
"T#	c #05F405",
"U#	c #042F04",
"V#	c #147114",
"W#	c #68F968",
"X#	c #F4FEF4",
"Y#	c #B2FEB2",
"Z#	c #31FE31",
"`#	c #038E03",
" $	c #021802",
".$	c #002000",
"+$	c #3B311A",
"@$	c #AF9D72",
"#$	c #F8F5EF",
"$$	c #FDF9EE",
"%$	c #FDE19E",
"&$	c #FAB613",
"*$	c #705003",
"=$	c #044504",
"-$	c #5EF25E",
";$	c #F5FEF5",
">$	c #13FE13",
",$	c #04D204",
"'$	c #032E03",
")$	c #0A5F0A",
"!$	c #44F444",
"~$	c #B6FEB6",
"{$	c #0BFD0B",
"]$	c #04F004",
"^$	c #039F03",
"/$	c #241E0F",
"($	c #A28E5D",
"_$	c #EFE6D2",
":$	c #FDF7EA",
"<$	c #FDE2A0",
"[$	c #FDBA1A",
"}$	c #F7B004",
"|$	c #38EE38",
"1$	c #CFFECF",
"2$	c #E7FEE7",
"3$	c #82FE82",
"4$	c #14FE14",
"5$	c #04EF04",
"6$	c #023A02",
"7$	c #136013",
"8$	c #51FE51",
"9$	c #9CFE9C",
"0$	c #A3FEA3",
"a$	c #7AFA7A",
"b$	c #31B331",
"c$	c #020C02",
"d$	c #000F00",
"e$	c #110C02",
"f$	c #796024",
"g$	c #DECFAB",
"h$	c #F9F6EE",
"i$	c #FDE2A2",
"j$	c #FDC02E",
"k$	c #FDB404",
"l$	c #13C513",
"m$	c #B5FAB5",
"n$	c #E5FEE5",
"o$	c #8CFE8C",
"p$	c #16FE16",
"q$	c #034403",
"r$	c #292519",
"s$	c #F9DE9E",
"t$	c #FCF8ED",
"u$	c #FDEBC0",
"v$	c #FDC540",
"w$	c #FCB303",
"x$	c #E7A404",
"y$	c #000001",
"z$	c #8FE98F",
"A$	c #C0FEC0",
"B$	c #46FE46",
"C$	c #03F103",
"D$	c #015501",
"E$	c #000D00",
"F$	c #29210E",
"G$	c #DFB758",
"H$	c #FDF6E6",
"I$	c #FDF4E0",
"J$	c #FDCF62",
"K$	c #F9B104",
"L$	c #A17304",
"M$	c #46E946",
"N$	c #D4FED4",
"O$	c #A6FEA6",
"P$	c #034A03",
"Q$	c #090702",
"R$	c #54441F",
"S$	c #FDE5AC",
"T$	c #FDFAF2",
"U$	c #FDE3A6",
"V$	c #FDB50A",
"W$	c #F1AB04",
"X$	c #93E493",
"Y$	c #3DFE3D",
"Z$	c #11FE11",
"`$	c #181205",
" %	c #8B7030",
".%	c #FDF0D0",
"+%	c #FDF1D4",
"@%	c #FDC642",
"#%	c #906703",
"$%	c #1AB51A",
"%%	c #93F893",
"&%	c #1BFE1B",
"*%	c #04DE04",
"=%	c #033E03",
"-%	c #211C0E",
";%	c #AF9556",
">%	c #FDDE94",
",%	c #FAB103",
"'%	c #CE9203",
")%	c #B1D4B1",
"!%	c #DAFEDA",
"~%	c #70FE70",
"{%	c #04F504",
"]%	c #036503",
"^%	c #020E02",
"/%	c #303031",
"(%	c #FDF6E4",
"_%	c #FDD064",
":%	c #FBB204",
"<%	c #D99A02",
"[%	c #2B2006",
"}%	c #79CF79",
"|%	c #55FE55",
"1%	c #12E012",
"2%	c #023602",
"3%	c #2A2415",
"4%	c #CFB578",
"5%	c #FDD370",
"6%	c #BD8602",
"7%	c #241B05",
"8%	c #2F2A1E",
"9%	c #F5D58A",
"0%	c #D4AD4F",
"a%	c #75560A",
"b%	c #291E04",
"                                                                                                ",
"                                                                                                ",
"                                                                                                ",
"                                                                                                ",
"                                              . . . + @                                         ",
"                                            # $ % & * =                                         ",
"                                          - ; > > , ' ) !                                       ",
"                                          ~ { ] ^ / ( ( _             : < [ }                   ",
"                                        | 1 2 ] 3 ' ( ( _ 4         5 6 7 8 9 0                 ",
"                      5 5 [             a b c d e ' ( ( ( f       [ g h i j k l m n             ",
"                  o p q r s [         t u 2 v w & ' ( ( ( f     [ x y z A B C l D E n           ",
"                F G H I J K L 5 5   4 M N 2 c O P ( ( ( ( Q   R S T U V W X Y l Z [             ",
"                `  ...+.@.#.$.%.&.R 4 *.=.-.c ;.>.( ( ( ,.'.).!.~.{.].^./.(._.:.4               ",
"                <.U [.}.|.1.l l 2.[   3.4.5.c % 6.( ( ( 7.  5 8.9.0.$.a.b.c.d.4                 ",
"                e.f.[.J g.h.l l i.j.k.l.m.n.c w o.' ( p.7.q.r.s.t.u.Y v.w.4 x.x.                ",
"                y.z.U A.B.l l l C.D.[   E.F.2 ] G.H.( I.  [ J.K.L.M.N.O.P.x.                    ",
"                  Q.R.S.T.l l l l U.[   V.W.> -.X.Y.' Z.  5 `. +.+a.++@+x.                      ",
"                    R R #+C.l l l C.$+[   %+&+*+3 H.=+Z.+ -+;+S.>+,+'+}                         ",
"              )+!+~+R   4 [ {+]+l l ^+/+(+  @ @ x.@ x.  _+:+<+[+}+4 |+                          ",
"            1+2+3+4+5+6+7+  4 n 8+]+l 9+0+a+    4 4     x.R n x.4 x.                            ",
"            b+c+d+e+f+g+h+i+j+    4 4 R k+l+k+m+n+m+o+p+    q+r+s+t+u+u+u+                      ",
"          h+v+w+x+e+y+z+A+B+C+i+D+  x.  [ E+F+G+H+I+J+K+L+M+N+O+P+Q+R+S+T+U+                    ",
"            V+W+X+Y+Z+`+A+A+A+ @.@+@@@x.#@$@%@&@*@=@-@;@>@,@'@)@!@~@{@]@^@^@/@u+(@              ",
"            h+_@:@Y+<@[@}@A+A+A+A+|@1@  2@3@4@5@J+6@J+J+7@5 8@9@0@a@b@]@^@^@^@c@(@              ",
"              h+d@y+c+e@f@g@A+ @h@i@j@4 2@k@l@m@J+6@6@6@n@5 o@p@q@r@s@t@^@^@^@^@u@(@            ",
"                R R x.x.v@w@x@y@x.x.x.R z@A@4@5@B@6@6@6@C@[ D@E@F@r@G@R+S+^@^@^@H@u@(@          ",
"                            x.x.        I@J@K@&@L@=@6@6@M@  N@O@P@Q@s@R@S@^@^@^@^@^@T@(@        ",
"              U@V@[ 5 5 5 5 5 5 5 [ R 4   W@X@Y@Z@=@6@`@     # #.#+#@###^@^@^@^@^@^@T@          ",
"            $#%#&#*#=#-#;#a.(.l l >#,#R     '#)#!#~#{#]#      ^#/# #(#^@^@^@^@^@_#:#<#x.        ",
"            [#}#|#1#2#3#4#h.(.C.5#6#7#8#  9#0#  a#b#  R x.4 c#      x.x.(@u+(@d#e#x.            ",
"          f#g#h#i#T j#$.Y l k#l#m#n#o#  p#q#r#s#t#  u#v#w#x#y#5 z#            x.                ",
"          A#B#J C#D#E#F#l l G#H#I#J#  K#L#M#N#O#P#  5 Q#R#+.S#B T#U#[                           ",
"          V#W#T X#Y#Z#l >#9+`# $.$  +$@$#$$$%$&$*$  =$-$@.;$j >$l l ,$'$                        ",
"          )$!$~$X#H 3#{$]$^$4     /$($_$:$<$[$}$P#  5 |$1$2$3$4$l l l 5$6$                      ",
"          5 7$8$9$0$a$b$c$d$  x.e$f$g$h$i$j$k$}$P#  5 l$m$n$o$p$l l l l C.q$4                   ",
"              [ [ [ R 4 x.      r$s$t$u$v$k$w$x$y$    5 z$1#A$B$Y l l l l C$D$E$                ",
"                              F$G$H$I$J$k$k$K$L$x.    5 M$N$|#O$1.Y l l l l P$4                 ",
"                            Q$R$S$T$U$V$k$k$W$P#      5 5 X$|#@.o$Y$Z$(.l l E n                 ",
"                            `$ %.%+%@%k$k$}$#%x.        5 $%%%@.2$-#&%(.l *%=%n                 ",
"                            -%;%I$>%V$k$,%'%x.            5 5 5 )%!%~%p${%]%^%                  ",
"                              /%(%_%k$:%<%[%x.                5 5 }%|%1%2%4                     ",
"                            3%4%I$5%}$6%7%x.x.                  5 5 5 [                         ",
"                              8%9%0%a%y$                                                        ",
"                                b%0#P#                                                          ",
"                                                                                                ",
"                                                                                                ",
"                                                                                                ",
"                                                                                                "};
